<?xml version="1.0" encoding="UTF-8" standalone="no"?>

<svg
   version="1.1"
   id="svg2"
   width="2810.6667"
   height="1333.3333"
   viewBox="0 0 2810.6667 1333.3333"
   sodipodi:docname="logo_jelinek_1_RGB.ai"
   xmlns:inkscape="http://www.inkscape.org/namespaces/inkscape"
   xmlns:sodipodi="http://sodipodi.sourceforge.net/DTD/sodipodi-0.dtd"
   xmlns="http://www.w3.org/2000/svg"
   xmlns:svg="http://www.w3.org/2000/svg">
  <defs
     id="defs6">
    <clipPath
       clipPathUnits="userSpaceOnUse"
       id="clipPath16">
      <path
         d="M 0,1000 H 2108 V 0 H 0 Z"
         id="path14" />
    </clipPath>
  </defs>
  <sodipodi:namedview
     id="namedview4"
     pagecolor="#ffffff"
     bordercolor="#000000"
     borderopacity="0.25"
     inkscape:showpageshadow="2"
     inkscape:pageopacity="0.0"
     inkscape:pagecheckerboard="0"
     inkscape:deskcolor="#d1d1d1" />
  <g
     id="g8"
     inkscape:groupmode="layer"
     inkscape:label="logo_jelinek_1_RGB"
     transform="matrix(1.3333333,0,0,-1.3333333,0,1333.3333)">
    <g
       id="g10">
      <g
         id="g12"
         clip-path="url(#clipPath16)">
        <g
           id="g18"
           transform="translate(844.5664,898)">
          <path
             d="m 0,0 c -1.681,-113.836 -146.388,-187.853 -147.867,-188.582 l -0.726,-0.387 -24.705,-13.926 V -90.97 h -34.612 v -131.402 l -149.978,-84.523 h -63.169 v 91.35 h -34.598 v -91.35 h -37.28 c -2.785,0 -5.638,0 -8.445,-0.017 -28.98,-0.157 -58.878,-0.314 -75.398,16.439 -11.552,11.701 -17.374,32.606 -17.374,62.071 h -34.652 c 0,-39.77 9.028,-68.281 27.645,-87.128 26.675,-27.109 65.577,-26.924 99.934,-26.704 2.784,0.023 5.545,0.023 8.29,0.023 h 72.335 l -171.819,-89.445 -8.942,-15.456 V -556.04 l 28.489,-12.892 92.608,36.055 271.702,-146.241 7.219,-0.857 v 37.454 l -269.886,146.252 -6.637,-1.362 -88.866,-34.16 v 74.246 l 217.757,115.334 h 139.068 c -5.282,-21.111 -21.136,-31.787 -47.378,-31.787 h -62.382 v -35.339 h 52.638 c 0,0 44.888,-0.046 62.475,15.504 17.589,15.562 31.256,35.189 31.256,69.315 v 17.623 H -286.24 l 154.016,86.804 c 11.05,5.591 164.865,85.991 166.851,219.554 z"
             style="fill:#c89d74;fill-opacity:1;fill-rule:nonzero;stroke:none"
             id="path20" />
        </g>
        <g
           id="g22"
           transform="translate(1322.9746,290.4004)">
          <path
             d="M 0,0 -21.408,35.814 H -39.891 L -7.948,-12.384 V -49.281 H 7.22 v 36.897 L 39.198,35.814 H 21.637 Z m 45.077,22.598 h 26.086 v -71.879 h 15.145 v 71.879 h 26.086 V 35.814 H 45.077 Z m -110.66,-53.13 c -1.282,-1.687 -2.818,-2.969 -4.69,-3.849 -1.894,-0.889 -3.961,-1.465 -6.205,-1.743 -2.242,-0.275 -4.322,-0.414 -6.238,-0.414 h -13.585 v 24.767 h 14.175 c 6.181,0 10.766,-0.9 13.828,-2.657 3.039,-1.768 4.586,-4.876 4.586,-9.369 0,-2.807 -0.646,-5.048 -1.871,-6.735 m -30.718,53.845 h 12.141 c 5.764,0 10.029,-0.796 12.719,-2.402 2.738,-1.605 4.079,-4.321 4.079,-8.169 0,-3.684 -1.307,-6.537 -3.952,-8.535 -2.632,-2.012 -6.468,-3.016 -11.542,-3.016 h -13.445 z m 29.307,-27.772 v 0.254 c 4.425,1.365 7.972,3.617 10.711,6.736 2.713,3.118 4.077,7.081 4.077,11.899 0,3.836 -0.75,7.128 -2.287,9.854 -1.526,2.715 -3.489,4.945 -5.95,6.666 -2.449,1.72 -5.22,2.969 -8.34,3.733 -3.119,0.772 -6.308,1.131 -9.486,1.131 h -33.166 V -49.281 H -80.8 c 4,0 7.94,0.427 11.83,1.259 3.873,0.843 7.362,2.241 10.341,4.158 3.015,1.918 5.441,4.459 7.279,7.625 1.835,3.155 2.738,7.07 2.738,11.725 0,5.766 -1.701,10.374 -5.142,13.828 -3.431,3.433 -7.854,5.512 -13.24,6.227 m -133.417,305.088 h -49.435 V 87.105 h 110.109 v 42.709 h -60.674 z m 769.84,0 h -59.47 l -68.934,-90.606 v 90.606 H 391.616 V 87.105 h 49.409 v 90.307 l 68.934,-90.307 h 59.47 L 484.957,193.874 Z M 287.007,35.814 H 266.571 L 230.989,-0.959 h -0.37 v 36.773 h -15.134 v -85.095 h 15.134 v 42.675 h 0.37 l 37.383,-42.675 h 21.27 l -42.42,45.805 z M 146.391,-11.771 h 39.058 v 12.73 h -39.058 v 21.639 h 41.255 v 13.216 h -56.388 v -85.095 h 58.535 v 13.47 h -43.402 z m 69.847,98.876 h 130.24 v 39.649 h -80.843 v 46.983 h 80.843 v 38.737 h -80.843 v 48.489 h 80.843 v 39.666 H 216.238 Z M -55.534,300.629 h -50.044 V 87.106 h 50.044 z M -519.176,160.627 c 0,-22.598 -10.351,-36.322 -28.674,-36.322 -19.518,0 -28.674,15.561 -28.674,36.609 h -49.413 c 0,-44.522 25.927,-78.984 78.687,-78.984 47.59,0 77.182,28.06 77.182,78.697 v 140.002 h -49.108 z m 488.019,187.274 -14.627,32.347 -84.204,-39.064 14.659,-32.318 z M 40.849,224.36 117.696,87.105 h 51.558 V 300.629 H 120.145 V 161.526 L 42.975,300.629 H -8.585 V 87.105 h 49.434 z m -335.84,-97.606 h -80.832 v 46.983 h 80.832 v 38.737 h -80.832 v 48.489 h 80.832 v 39.666 H -425.239 V 87.105 h 130.248 z m 128.37,-66.9 -11.911,-17.305 h 11.3 l 16.948,17.305 z m -83.511,-87.741 h -0.244 l -39.532,63.701 h -20.065 v -85.095 h 15.151 v 65.744 h 0.236 l 40.353,-65.744 h 19.234 v 85.095 h -15.133 z m 64.264,11.055 13.354,34.622 13.112,-34.622 z m 7.22,52.646 -37.013,-85.095 h 16.949 l 7.681,19.476 h 36.899 l 7.946,-19.476 h 17.294 l -36.643,85.095 z"
             style="fill:#1d1d1b;fill-opacity:1;fill-rule:nonzero;stroke:none"
             id="path24" />
        </g>
      </g>
    </g>
  </g>
</svg>
